<?xml version="1.0" standalone="no"?>
<!DOCTYPE svg PUBLIC "-//W3C//DTD SVG 20010904//EN" "http://www.w3.org/TR/2001/REC-SVG-20010904/DTD/svg10.dtd">
<svg version="1.0" xmlns="http://www.w3.org/2000/svg"
    width="296.000000pt" height="296.000000pt" viewBox="0 0 296.000000 296.000000"
    preserveAspectRatio="xMidYMid meet">

    <g transform="translate(0.000000,296.000000) scale(0.100000,-0.100000)"
        fill="#8c63a7" stroke="none">
        <path
            d="M2280 2581 c-36 -37 -103 -96 -150 -131 -47 -35 -106 -87 -131 -114
l-47 -50 -92 58 c-101 64 -101 64 -120 -6 -14 -50 -3 -69 64 -106 122 -70 238
-211 287 -352 17 -48 24 -95 27 -182 l4 -116 47 -12 c76 -19 182 -81 254 -149
l68 -64 37 30 c78 63 143 185 176 333 16 71 37 242 30 249 -2 3 -30 -8 -62
-23 -31 -15 -82 -33 -112 -41 -69 -19 -187 -20 -193 -2 -2 6 7 41 21 77 53
138 64 197 59 315 -4 92 -10 125 -37 200 -18 50 -40 104 -49 122 l-16 31 -65
-67z" />
        <path
            d="M572 2538 c-52 -133 -61 -174 -62 -279 0 -92 21 -190 65 -298 24 -58
25 -65 11 -79 -24 -25 -179 -1 -280 43 -44 19 -81 33 -82 32 -1 -1 2 -42 7
-92 23 -208 79 -363 165 -455 l47 -51 41 40 c71 68 201 139 286 156 75 14 70
7 70 117 0 187 56 324 185 453 44 44 105 93 135 109 30 16 58 34 62 40 9 13 1
61 -16 94 -12 22 -12 22 -99 -33 -49 -30 -93 -55 -99 -55 -6 0 -29 21 -51 46
-22 25 -84 79 -137 119 -53 40 -122 101 -152 135 l-56 61 -40 -103z" />
        <path
            d="M1340 2244 c-195 -53 -348 -193 -415 -383 -20 -58 -35 -188 -27 -241
l7 -45 78 -6 c156 -13 309 -87 411 -200 l50 -54 85 86 c133 133 265 190 442
193 l87 1 5 40 c3 22 2 72 -3 111 -37 296 -288 516 -585 513 -44 0 -105 -7
-135 -15z m2 -232 c41 -40 50 -120 20 -168 -22 -35 -76 -64 -119 -64 -102 0
-168 125 -110 211 31 47 62 61 125 56 44 -3 59 -9 84 -35z"
            fill="#c3bce7" />
        <path
            d="M1190 1970 c-28 -28 -26 -81 3 -108 49 -46 127 -12 127 56 0 43 -30
72 -75 72 -22 0 -43 -8 -55 -20z" />
        <path
            d="M1860 1524 c-131 -28 -268 -116 -345 -223 l-32 -44 29 -65 c73 -162
76 -337 7 -509 -25 -62 -23 -68 60 -149 146 -143 363 -198 561 -143 103 28
162 62 246 142 111 104 169 228 181 383 21 283 -181 550 -462 609 -86 18 -160
18 -245 -1z m476 -470 c109 -52 104 -202 -8 -248 -45 -18 -49 -19 -92 -2 -116
45 -125 192 -15 248 42 22 71 23 115 2z"
            fill="#c3bce7" />
        <path
            d="M2225 985 c-14 -13 -25 -35 -25 -48 0 -28 32 -73 59 -82 47 -15 109
42 97 90 -16 62 -87 85 -131 40z" />
        <path
            d="M845 1510 c-185 -25 -360 -150 -440 -315 -49 -101 -68 -192 -62 -295
14 -254 189 -470 434 -536 75 -20 222 -19 297 1 309 82 495 400 416 710 -37
143 -118 259 -238 339 -118 78 -269 114 -407 96z m-125 -475 c62 -59 61 -141
0 -200 -27 -26 -39 -30 -90 -30 -51 0 -63 4 -89 29 -58 56 -63 128 -13 187 33
40 57 50 115 45 36 -2 55 -10 77 -31z"
            fill="#c3bce7" />
        <path d="M571 984 c-62 -79 43 -170 114 -99 49 49 16 125 -55 125 -30 0 -43
-6 -59 -26z" />
    </g>
</svg>