<?xml version="1.0" standalone="no"?>
<!DOCTYPE svg PUBLIC "-//W3C//DTD SVG 20010904//EN" "http://www.w3.org/TR/2001/REC-SVG-20010904/DTD/svg10.dtd">
<svg version="1.0" xmlns="http://www.w3.org/2000/svg"
    width="377.000000pt" height="377.000000pt" viewBox="0 0 377.000000 377.000000"
    preserveAspectRatio="xMidYMid meet">

    <g transform="translate(0.000000,377.000000) scale(0.100000,-0.100000)"
        fill="#FFCE42" stroke="none">
        <path
            d="M2996 3004 c-14 -13 -15 -37 -10 -167 l7 -152 -41 -121 c-92 -274
-239 -508 -467 -743 -222 -229 -467 -401 -745 -523 -208 -92 -360 -133 -594
-163 -75 -9 -117 -20 -135 -33 -88 -64 -97 -188 -19 -259 43 -39 205 -99 368
-135 131 -29 450 -31 585 -4 526 106 956 443 1157 908 81 188 121 384 121 593
-1 147 -10 225 -44 363 l-21 83 27 150 c33 178 33 179 -76 203 -85 20 -94 20
-113 0z" />
        <path
            d="M2830 2617 c-61 -91 -227 -268 -329 -351 -239 -195 -587 -366 -911
-446 -184 -46 -314 -62 -520 -62 -183 0 -244 6 -412 39 -71 14 -94 14 -127 5
-79 -24 -130 -108 -115 -189 18 -94 257 -271 498 -369 77 -31 89 -33 138 -24
29 5 103 16 163 25 197 29 402 95 590 190 502 254 903 692 1050 1147 20 61 35
112 33 113 -2 2 -28 -34 -58 -78z" />
    </g>
</svg>